<?xml version="1.0" standalone="no"?>
<!DOCTYPE svg PUBLIC "-//W3C//DTD SVG 20010904//EN"
 "http://www.w3.org/TR/2001/REC-SVG-20010904/DTD/svg10.dtd">
<svg version="1.0" xmlns="http://www.w3.org/2000/svg"
 width="512.000000pt" height="512.000000pt" viewBox="0 0 512.000000 512.000000"
 preserveAspectRatio="xMidYMid meet">

<g transform="translate(0.000000,512.000000) scale(0.100000,-0.100000)"
fill="#000000" stroke="none">
<path d="M1826 5104 c-69 -17 -160 -63 -215 -110 -52 -45 -117 -144 -136 -208
-9 -28 -63 -274 -120 -546 -58 -272 -107 -505 -110 -517 -5 -23 -6 -23 -199
-23 -109 0 -206 -5 -223 -10 -36 -13 -53 -46 -53 -103 1 -147 93 -293 226
-358 l64 -32 0 -133 0 -133 -51 -51 c-75 -75 -104 -144 -104 -250 0 -75 4 -93
31 -150 76 -158 179 -210 418 -210 l141 -1 55 -90 c98 -162 272 -326 442 -418
87 -46 89 -66 11 -74 -64 -7 -76 -17 -125 -100 -23 -40 -33 -47 -84 -62 -85
-25 -200 -85 -280 -149 -129 -100 -228 -250 -280 -421 l-28 -90 -4 -389 c-2
-213 -1 -399 2 -412 4 -14 15 -33 26 -44 20 -20 39 -20 1330 -20 1291 0 1310
0 1330 20 11 11 22 31 26 44 3 14 4 198 1 408 -5 401 -12 474 -52 518 -24 27
-79 26 -106 -1 -23 -23 -23 -13 1 -184 5 -38 9 -202 10 -362 l0 -293 -100 0
-100 0 0 55 0 55 49 0 c42 0 53 4 70 26 19 24 21 40 21 171 0 139 -1 145 -25
168 -18 19 -35 25 -70 25 l-45 0 0 78 c0 75 1 77 30 94 48 27 49 62 7 140 -35
63 -37 73 -37 154 l0 86 40 -36 c24 -21 50 -36 65 -36 32 0 75 41 75 72 0 85
-243 271 -423 323 -52 15 -62 22 -85 62 -49 83 -61 93 -124 100 -79 8 -77 28
10 74 170 92 344 256 442 418 l55 90 141 1 c239 0 342 52 418 210 27 57 31 75
31 150 0 106 -29 175 -104 250 l-51 51 0 133 0 133 64 32 c133 65 225 211 226
358 0 57 -17 90 -53 103 -16 5 -103 10 -192 10 -161 0 -163 0 -168 23 -3 12
-54 249 -113 527 -58 278 -115 529 -126 557 -70 189 -263 313 -488 313 -142 0
-260 -43 -370 -136 -30 -25 -84 -60 -120 -78 -59 -28 -74 -31 -160 -31 -86 0
-101 3 -160 31 -36 18 -90 53 -120 78 -139 117 -296 158 -454 120z m1772
-2196 c-4 -244 -7 -282 -27 -353 -34 -123 -79 -220 -145 -319 -265 -398 -760
-563 -1213 -405 -352 123 -607 420 -677 789 -12 60 -16 147 -16 321 l0 239
1041 0 1041 0 -4 -272z m-2234 -170 c7 -92 34 -237 55 -290 l11 -28 -99 0
c-54 0 -113 5 -132 11 -181 61 -193 308 -19 383 20 9 66 15 106 16 l71 0 7
-92z m2574 76 c176 -73 165 -322 -17 -383 -19 -6 -78 -11 -132 -11 l-99 0 11
28 c21 53 48 198 55 290 l7 92 69 0 c39 0 84 -7 106 -16z m-1588 -1180 c138
-27 368 -18 523 21 l27 7 0 -83 c0 -84 0 -86 -167 -546 -93 -255 -170 -463
-173 -463 -3 0 -80 208 -173 463 -167 460 -167 462 -167 546 l0 83 28 -7 c15
-4 61 -13 102 -21z m-287 -138 c3 -19 35 -116 72 -216 36 -101 64 -184 63
-185 -8 -6 -469 -96 -477 -93 -5 2 40 86 101 188 60 102 129 220 154 263 51
87 78 101 87 43z m1192 -231 c84 -143 149 -261 144 -263 -8 -3 -469 87 -477
93 -1 1 27 84 63 185 37 100 69 197 72 216 12 72 36 43 198 -231z m-1543 43
c-7 -7 -12 -8 -12 -2 0 6 3 14 7 17 3 4 9 5 12 2 2 -3 -1 -11 -7 -17z m1708 1
c0 -6 -4 -7 -10 -4 -5 3 -10 11 -10 16 0 6 5 7 10 4 6 -3 10 -11 10 -16z
m-1906 -344 c-43 -82 -42 -116 6 -143 29 -17 30 -19 30 -94 l0 -78 -45 0 c-35
0 -52 -6 -70 -25 -24 -23 -25 -29 -25 -168 0 -131 2 -147 21 -171 17 -22 28
-26 70 -26 l49 0 0 -55 0 -55 -101 0 -101 0 5 348 c3 280 7 358 20 402 24 80
90 208 134 260 l38 44 3 -84 c3 -82 2 -88 -34 -155z m816 -228 c0 -5 -22 18
-50 51 -53 63 -57 79 -38 132 l11 33 38 -104 c22 -57 39 -108 39 -112z m560
134 c0 -14 -20 -47 -50 -83 -27 -33 -50 -57 -50 -53 0 4 17 54 38 112 36 100
37 103 49 76 7 -15 12 -39 13 -52z m-817 -13 l-4 -53 220 -265 c133 -161 229
-269 245 -274 16 -6 36 -6 52 0 16 5 112 113 245 274 l220 265 -4 53 c-4 58
-5 58 73 41 l50 -11 0 -119 0 -119 -43 0 c-52 0 -83 -25 -92 -74 -4 -18 -5
-88 -3 -156 3 -114 5 -123 27 -141 15 -12 39 -19 67 -19 l44 0 0 -55 0 -55
-610 0 -610 0 0 55 0 55 44 0 c28 0 52 7 67 19 22 18 24 27 27 141 2 68 1 138
-3 156 -9 49 -40 74 -92 74 l-43 0 0 119 0 120 43 9 c83 19 84 19 80 -40z
m-283 -108 l0 -100 -45 0 -46 0 3 92 c3 89 4 92 28 99 61 17 60 18 60 -91z
m1622 84 c5 -3 8 -45 8 -95 l0 -89 -45 0 -45 0 0 101 0 101 37 -7 c21 -4 41
-9 45 -11z m-1482 -379 l0 -45 -185 0 -185 0 0 45 0 45 185 0 185 0 0 -45z
m1630 0 l0 -45 -185 0 -185 0 0 45 0 45 185 0 185 0 0 -45z m-1770 -255 l0
-50 -45 0 -45 0 0 50 0 50 45 0 45 0 0 -50z m1630 0 l0 -50 -45 0 -45 0 0 50
0 50 45 0 45 0 0 -50z"/>
<path d="M1790 3144 c-115 -24 -201 -57 -222 -84 -18 -23 -19 -37 -16 -175 3
-137 5 -155 29 -205 32 -69 92 -131 161 -167 52 -28 55 -28 238 -28 178 0 187
1 234 25 94 48 170 147 182 237 13 92 -5 84 167 81 l152 -3 6 -53 c15 -116
105 -230 215 -271 47 -18 78 -21 209 -21 194 0 242 14 326 99 84 84 99 133 99
320 0 173 -1 175 -110 209 -132 41 -172 47 -335 46 -144 -1 -169 -3 -248 -28
-126 -38 -144 -49 -158 -96 l-12 -40 -146 0 -147 0 -14 43 c-15 42 -16 42
-110 74 -52 17 -124 37 -160 42 -89 15 -262 12 -340 -5z"/>
<path d="M2381 2375 c-104 -23 -146 -66 -119 -123 23 -47 52 -53 143 -31 44
10 114 19 155 19 41 0 111 -9 155 -19 65 -16 85 -17 105 -8 55 27 59 98 7 132
-64 42 -313 58 -446 30z"/>
</g>
</svg>
