<?xml version="1.0" standalone="no"?>
<!DOCTYPE svg PUBLIC "-//W3C//DTD SVG 20010904//EN"
 "http://www.w3.org/TR/2001/REC-SVG-20010904/DTD/svg10.dtd">
<svg version="1.0" xmlns="http://www.w3.org/2000/svg"
 width="253.000000pt" height="167.000000pt" viewBox="0 0 253.000000 167.000000"
 preserveAspectRatio="xMidYMid meet">

<g transform="translate(0.000000,167.000000) scale(0.100000,-0.100000)"
fill="#000000" stroke="none">
<path d="M602 1588 c-7 -7 -12 -36 -12 -64 0 -47 -2 -53 -22 -56 -19 -2 -26
-14 -36 -58 -8 -30 -23 -67 -33 -82 l-20 -28 -46 53 c-79 91 -93 95 -147 43
-46 -43 -48 -86 -8 -142 26 -35 28 -45 24 -104 -3 -52 -1 -69 12 -79 9 -7 16
-25 16 -38 0 -14 17 -45 37 -70 l37 -45 -175 -350 -174 -349 22 -19 c13 -10
23 -27 23 -38 0 -11 6 -24 12 -30 7 -5 93 -13 190 -17 l177 -7 12 25 c6 14 21
27 32 29 14 2 47 54 121 191 127 235 123 231 315 242 158 8 206 28 250 103 14
24 43 64 65 88 l39 44 202 0 203 0 19 38 20 37 234 6 c129 3 235 6 235 7 11
15 34 89 34 112 0 28 2 29 53 32 l52 3 3 53 c3 50 4 52 32 52 59 0 60 3 60
120 0 117 -1 120 -61 120 -27 0 -29 3 -29 35 0 22 -6 38 -14 41 -8 3 -17 23
-21 45 -4 23 -14 43 -25 49 -23 13 -157 13 -164 1 -4 -5 -41 -23 -84 -40 -42
-18 -86 -37 -97 -44 -15 -9 -135 -13 -452 -15 -423 -3 -433 -3 -433 16 0 36
-48 45 -189 37 -125 -6 -129 -6 -136 14 -12 38 -34 51 -89 51 -28 0 -57 -5
-64 -12z m117 -64 l22 -37 143 7 c90 5 146 4 150 -2 10 -17 -35 -22 -221 -22
l-183 0 0 45 c0 45 0 45 34 45 29 0 37 -6 55 -36z m1571 10 c0 -7 3 -19 6 -27
5 -13 -12 -15 -113 -15 -115 -1 -117 0 -83 15 19 8 40 16 47 16 7 0 15 7 17
14 8 19 126 16 126 -3z m30 -259 l0 -165 -975 0 -975 0 0 21 c0 11 4 18 9 15
5 -4 7 2 5 11 -4 14 12 26 68 53 83 41 131 98 143 171 5 29 10 38 18 30 6 -6
15 -7 21 -2 6 5 112 10 236 12 l225 4 0 -27 c-1 -16 2 -28 6 -28 4 0 10 -21
14 -46 3 -26 9 -52 11 -58 3 -8 87 -10 292 -9 l287 2 12 23 c7 13 13 34 13 47
0 21 2 22 18 10 15 -13 16 -12 4 3 -9 11 -11 29 -7 52 l7 35 77 3 c42 2 169 4
284 5 l207 2 0 -164z m-620 146 c0 -5 -5 -32 -12 -60 l-12 -51 -255 2 -255 3
-12 58 -11 57 278 0 c164 0 279 -4 279 -9z m720 -131 c0 -79 0 -80 -25 -80
-25 0 -25 1 -25 80 0 79 0 80 25 80 25 0 25 -1 25 -80z m-2025 30 c21 -22 37
-41 34 -44 -2 -2 -18 -11 -35 -19 -29 -15 -33 -15 -47 1 -34 39 -40 62 -21 83
9 10 20 19 24 19 3 0 23 -18 45 -40z m1347 -317 c-8 -32 -23 -71 -32 -88 l-17
-30 -409 -2 c-381 -2 -409 -3 -421 -20 -7 -10 -17 -24 -23 -30 -6 -7 -9 -13
-6 -13 5 0 -311 -591 -323 -602 -7 -8 -325 10 -351 19 -8 4 -20 5 -27 4 -13
-2 23 80 41 91 6 4 8 8 3 8 -4 0 47 108 114 240 108 216 123 240 137 228 15
-12 16 -11 3 5 -12 15 -12 23 2 55 26 61 25 65 -14 113 -71 86 -127 79 650 79
l690 0 -17 -57z m478 38 c0 -10 -5 -32 -11 -50 l-11 -31 -209 0 c-179 0 -209
2 -209 15 0 13 23 15 148 16 91 0 139 4 127 9 -11 5 -76 9 -144 9 -108 1 -122
3 -117 17 3 9 6 20 6 25 0 5 89 9 210 9 198 0 210 -1 210 -19z m-1275 -249 c9
-54 40 -102 66 -102 16 0 20 4 14 18 -13 34 -17 72 -11 97 6 23 11 25 59 25
65 -1 92 -29 81 -85 -10 -57 -51 -75 -171 -75 l-99 0 -17 30 c-17 29 -17 31 8
80 32 63 60 68 70 12z"/>
<path d="M1009 1383 c-13 -16 -12 -17 4 -4 9 7 17 15 17 17 0 8 -8 3 -21 -13z"/>
<path d="M655 1371 c5 -9 -42 -138 -57 -158 -13 -17 11 -28 27 -12 16 18 67
160 60 167 -9 9 -36 11 -30 3z"/>
<path d="M736 1365 c3 -7 -2 -19 -10 -28 -8 -8 -12 -17 -9 -21 3 -3 0 -12 -7
-21 -7 -8 -10 -15 -7 -15 3 0 -1 -16 -9 -36 -16 -38 -7 -67 13 -42 15 20 64
160 58 166 -12 12 -33 10 -29 -3z"/>
<path d="M816 1365 c3 -7 -2 -19 -10 -28 -8 -8 -12 -17 -9 -21 3 -3 0 -12 -7
-21 -7 -8 -10 -15 -7 -15 3 0 -1 -16 -9 -36 -16 -38 -7 -67 13 -42 15 20 64
160 58 166 -12 12 -33 10 -29 -3z"/>
<path d="M896 1365 c3 -7 -2 -19 -10 -28 -8 -8 -12 -17 -9 -21 3 -3 0 -12 -7
-21 -7 -8 -10 -15 -7 -15 3 0 -1 -16 -9 -36 -16 -38 -7 -67 13 -42 15 20 64
160 58 166 -12 12 -33 10 -29 -3z"/>
<path d="M970 1288 c-7 -18 -20 -39 -28 -45 -11 -9 -12 -13 -4 -13 10 0 10 -5
2 -20 -6 -11 -8 -25 -4 -32 8 -13 692 -3 809 12 39 5 114 9 167 10 53 0 99 4
102 9 3 4 -230 7 -527 5 -292 -2 -527 -1 -520 2 7 3 9 12 6 21 -4 9 -2 14 3
11 5 -4 9 4 10 15 0 12 4 30 8 40 5 10 4 17 -2 17 -5 0 -15 -15 -22 -32z"/>
<path d="M2045 1242 c3 -3 -1 -15 -9 -27 -13 -20 -12 -21 28 -20 34 0 41 3 41
20 0 14 -9 21 -33 26 -18 4 -31 4 -27 1z"/>
<path d="M2231 1234 c-17 -13 -20 -19 -10 -30 13 -16 55 -19 64 -4 4 6 12 7
18 3 7 -4 6 1 -2 11 -25 30 -46 36 -70 20z"/>
<path d="M2134 1225 c-9 -22 9 -37 37 -33 16 2 24 10 24 23 0 26 -52 35 -61
10z"/>
<path d="M560 1007 c0 -11 25 -15 107 -20 167 -11 183 -10 183 11 0 15 -15 17
-145 20 -120 3 -145 1 -145 -11z"/>
<path d="M1655 960 c-3 -5 -43 -10 -88 -11 -121 -1 -154 -16 -42 -19 50 -1 99
-1 110 0 22 2 45 18 45 31 0 12 -17 11 -25 -1z"/>
<path d="M523 930 c-18 -11 -33 -24 -33 -30 0 -6 -8 -29 -19 -53 -38 -86 -61
-149 -56 -157 3 -4 14 -10 25 -13 15 -4 18 -2 11 6 -15 19 70 219 87 202 3 -3
12 4 20 16 13 18 23 20 101 19 123 -3 131 -2 131 15 0 12 -20 15 -117 15 -100
0 -123 -3 -150 -20z"/>
<path d="M883 935 c-3 -9 -3 -18 0 -21 7 -7 321 -6 362 1 36 7 91 13 125 15
l25 2 -25 8 c-14 4 -128 8 -253 9 -197 1 -228 -1 -234 -14z"/>
<path d="M682 675 c-11 -13 -23 -21 -27 -17 -5 4 -5 2 -1 -5 6 -12 -28 -93
-40 -93 -3 0 -2 5 2 12 4 7 3 8 -5 4 -6 -4 -9 -12 -5 -17 3 -6 -2 -17 -12 -25
-11 -9 -14 -13 -7 -10 6 4 -18 -48 -55 -115 l-66 -121 -66 6 c-36 4 -91 9
-122 13 -48 5 -58 3 -58 -10 0 -15 7 -16 197 -33 l72 -6 15 33 c8 19 31 61 51
94 19 33 42 76 51 95 9 19 25 47 35 61 10 14 16 29 12 33 -3 3 0 6 7 6 7 0 11
3 7 6 -3 4 0 19 9 35 19 37 35 79 29 79 -2 0 -12 -11 -23 -25z"/>
<path d="M383 654 c4 -7 0 -18 -9 -25 -13 -11 -37 -57 -35 -66 1 -2 -20 -44
-45 -93 -40 -81 -47 -110 -26 -110 9 0 23 28 85 162 44 95 50 119 32 135 -4 4
-5 3 -2 -3z"/>
</g>
</svg>
